<?xml version="1.0" standalone="no"?>
<!DOCTYPE svg PUBLIC "-//W3C//DTD SVG 20010904//EN"
 "http://www.w3.org/TR/2001/REC-SVG-20010904/DTD/svg10.dtd">
<svg version="1.0" xmlns="http://www.w3.org/2000/svg"
 width="1501.000000pt" height="1501.000000pt" viewBox="0 0 1501.000000 1501.000000"
 preserveAspectRatio="xMidYMid meet">
<metadata>
Created by potrace 1.14, written by Peter Selinger 2001-2017
</metadata>
<g transform="translate(0.000000,1501.000000) scale(0.100000,-0.100000)"
fill="#000000" stroke="none">
<path d="M7675 13499 c-44 -17 -147 -55 -230 -85 -296 -108 -436 -191 -685
-406 -208 -180 -334 -328 -512 -597 -178 -270 -276 -506 -313 -753 -5 -35 -11
-39 -113 -94 -358 -192 -704 -432 -1002 -695 -50 -44 -90 -76 -90 -71 0 9 61
150 116 267 15 33 48 94 72 135 42 71 178 324 281 525 25 50 66 135 91 190 65
145 190 359 316 541 61 87 126 186 146 219 72 121 338 633 338 650 0 13 -6 16
-25 11 -84 -21 -457 -233 -675 -384 -167 -115 -331 -252 -476 -396 -207 -207
-311 -354 -463 -655 -86 -170 -91 -186 -145 -461 -106 -533 -97 -468 -107
-800 -4 -168 -6 -325 -3 -350 6 -54 8 -50 -130 -232 -127 -168 -266 -375 -366
-549 -62 -106 -71 -118 -66 -84 4 22 9 137 13 255 9 328 -26 623 -111 955 -25
94 -67 258 -95 365 -28 107 -64 265 -81 350 -16 85 -43 214 -59 285 -83 366
-123 734 -120 1115 2 226 -2 281 -20 280 -15 -1 -216 -357 -277 -490 -168
-367 -224 -596 -224 -923 0 -198 18 -347 79 -647 97 -477 124 -583 210 -795
55 -138 148 -411 250 -740 64 -204 123 -475 128 -590 l5 -100 -60 -180 c-70
-208 -130 -424 -164 -584 -12 -61 -25 -111 -28 -111 -3 0 -22 45 -43 99 -20
54 -78 169 -127 255 -50 87 -167 296 -262 464 -94 169 -200 357 -236 417 -91
153 -193 366 -230 478 -29 86 -90 373 -126 592 -35 208 -44 385 -27 505 9 62
6 80 -16 80 -39 0 -189 -140 -275 -255 -179 -242 -361 -659 -408 -938 -36
-214 -21 -466 41 -683 39 -135 51 -160 152 -304 138 -197 206 -280 367 -445
86 -88 183 -191 215 -230 33 -38 152 -167 265 -286 409 -432 427 -454 554
-709 l63 -126 6 -189 c30 -864 305 -1773 769 -2533 343 -562 783 -1054 1313
-1467 148 -115 447 -315 625 -416 1091 -622 2380 -839 3625 -608 804 149 1576
491 2243 993 383 289 777 685 1065 1071 508 680 854 1488 991 2312 144 866 82
1706 -186 2517 -49 149 -69 196 -93 219 -86 87 -488 216 -835 268 -136 21
-190 24 -440 23 -244 0 -306 -3 -430 -22 -458 -71 -845 -206 -1262 -441 -358
-202 -627 -387 -1158 -797 -393 -303 -508 -387 -710 -520 -541 -355 -1102
-593 -1838 -780 -274 -69 -626 -139 -772 -154 -790 -79 -1555 -378 -2363 -923
-98 -66 -179 -118 -181 -116 -8 9 -78 254 -110 389 -147 610 -182 1236 -106
1865 17 143 68 445 75 453 2 2 142 35 312 74 223 50 385 95 586 160 388 125
421 138 572 238 167 111 255 186 344 297 75 94 189 302 234 428 35 99 78 295
70 325 -16 65 -45 64 -196 -10 -135 -65 -246 -135 -426 -269 -80 -59 -173
-126 -206 -148 -71 -48 -421 -249 -654 -375 -167 -92 -317 -182 -446 -268 -38
-25 -75 -49 -81 -53 -21 -12 81 286 176 518 98 236 320 658 438 833 5 7 35 17
68 22 140 23 436 61 659 85 267 28 357 43 525 85 310 78 778 271 951 391 81
57 251 254 297 344 62 124 123 370 125 510 3 166 -17 182 -140 115 -124 -69
-200 -120 -369 -251 -119 -93 -205 -150 -343 -226 -225 -125 -348 -178 -555
-238 -295 -85 -661 -245 -873 -382 -28 -18 -27 -17 6 25 75 95 285 323 402
437 304 293 617 533 984 753 268 161 710 364 992 456 l81 27 85 -46 c47 -25
122 -59 168 -76 94 -34 187 -85 367 -201 67 -44 156 -96 197 -117 207 -106
524 -162 748 -132 49 7 148 30 220 52 175 54 204 80 129 118 -78 40 -511 162
-997 281 -536 132 -698 177 -674 190 8 4 73 21 144 38 375 89 738 134 1103
136 l206 1 113 -160 c109 -154 258 -337 372 -457 70 -75 220 -172 324 -210
119 -43 288 -58 421 -35 147 24 159 46 69 123 -92 79 -130 106 -262 185 -120
72 -289 195 -481 349 -52 42 -125 98 -162 124 -37 26 -71 52 -74 58 -22 35
734 -84 820 -129 72 -37 399 -247 468 -300 198 -154 613 -503 853 -719 109
-98 470 -382 580 -456 165 -111 445 -240 727 -335 129 -43 152 -47 235 -48
109 0 130 11 119 67 -12 64 -74 175 -142 254 -453 522 -669 720 -1100 1006
-272 181 -394 249 -604 336 -206 86 -259 104 -489 162 -103 26 -265 68 -361
93 -479 124 -1020 207 -1365 207 -66 0 -126 4 -133 8 -21 14 78 47 398 132
168 45 413 112 545 150 132 38 303 85 380 104 164 41 656 205 733 243 40 20
52 32 52 49 0 34 -30 49 -196 98 -212 62 -272 71 -479 70 -206 0 -308 -16
-532 -84 -208 -63 -322 -121 -549 -280 -133 -94 -315 -199 -559 -322 -99 -50
-214 -112 -255 -138 -74 -47 -77 -48 -210 -64 -426 -51 -898 -169 -1286 -321
-48 -19 -89 -34 -90 -32 -1 1 23 31 54 66 86 97 332 321 466 424 457 351 550
445 737 742 67 107 189 352 210 424 12 40 11 45 -6 57 -23 17 -15 19 -110 -17z
m55 -49 c0 -13 -109 -207 -187 -332 -162 -262 -344 -449 -683 -703 -186 -139
-261 -205 -508 -449 -133 -131 -245 -236 -248 -233 -3 3 2 19 10 36 27 52 315
473 374 546 134 166 377 397 688 652 89 73 165 140 168 149 20 51 -37 20 -180
-99 -61 -51 -160 -132 -220 -182 -168 -138 -447 -423 -546 -555 -47 -63 -151
-215 -232 -337 -80 -123 -149 -223 -152 -223 -13 0 6 96 37 189 93 277 379
717 619 949 248 241 489 400 735 486 55 19 143 53 195 75 99 41 130 48 130 31z
m-1756 -242 c-26 -87 -193 -385 -312 -558 -247 -358 -356 -537 -435 -710 -96
-214 -438 -863 -551 -1047 -45 -73 -94 -155 -109 -184 -16 -28 -30 -49 -33
-47 -11 12 32 167 101 358 41 115 88 258 105 318 37 134 106 328 128 362 9 14
57 106 107 205 140 277 263 463 461 699 194 230 214 261 178 273 -16 5 -231
-236 -349 -392 -135 -178 -210 -296 -317 -498 -161 -305 -226 -457 -278 -650
-16 -62 -71 -227 -121 -367 -50 -140 -103 -295 -119 -344 -30 -92 -67 -162
-96 -187 -16 -13 -17 0 -11 206 4 153 12 254 25 330 11 61 28 164 37 230 10
68 34 172 55 240 22 66 48 157 60 203 95 379 403 807 818 1138 108 86 634 444
653 444 6 0 7 -9 3 -22z m4216 -297 c147 -21 173 -28 167 -45 -6 -17 -434
-171 -632 -227 -99 -28 -260 -70 -357 -95 -98 -25 -196 -51 -217 -59 -32 -11
-318 -79 -421 -100 -24 -5 -25 -5 -5 11 34 27 264 139 387 188 64 26 221 73
349 106 128 33 235 62 237 65 3 2 2 12 -2 21 -9 22 -56 16 -288 -42 -129 -31
-226 -63 -328 -105 -80 -34 -188 -79 -240 -101 -102 -43 -231 -110 -320 -166
-30 -19 -77 -45 -105 -57 -55 -25 -197 -59 -217 -53 -7 3 64 44 157 93 223
115 328 177 510 298 232 155 362 209 617 256 90 17 177 32 193 35 66 10 387
-4 515 -23z m-7063 -182 c-3 -72 -2 -170 3 -217 5 -48 16 -159 24 -247 16
-159 86 -603 105 -660 6 -17 22 -95 37 -175 28 -159 97 -485 114 -540 5 -19
24 -102 40 -185 17 -82 35 -163 40 -180 5 -16 23 -139 40 -272 l30 -241 -10
-299 c-10 -329 -25 -429 -91 -634 l-34 -104 -6 300 c-8 421 -27 544 -198 1285
-27 118 -52 231 -56 250 -4 19 -31 118 -60 220 -96 336 -130 585 -123 896 4
154 11 234 31 354 15 85 29 166 31 180 3 14 1 32 -4 40 -18 29 -40 -13 -54
-106 -8 -49 -22 -132 -32 -184 -15 -76 -19 -143 -18 -330 0 -343 15 -432 179
-1095 57 -231 110 -458 119 -505 8 -47 35 -193 61 -325 25 -132 50 -271 55
-310 18 -122 26 -325 20 -475 -6 -169 -11 -167 -61 33 -16 67 -45 172 -64 232
-18 61 -45 153 -60 205 -15 52 -61 187 -103 300 -138 379 -153 425 -173 510
-11 47 -32 121 -45 165 -35 111 -121 543 -139 700 -47 404 6 771 159 1095 35
74 74 158 85 185 32 74 143 265 154 265 6 0 8 -48 4 -131z m5533 -718 c41 -31
171 -150 290 -266 239 -233 329 -301 483 -365 165 -69 174 -46 12 30 -124 58
-223 120 -301 191 -79 70 -479 463 -462 453 60 -35 209 -140 283 -199 173
-140 391 -299 471 -345 110 -64 219 -139 277 -190 43 -38 47 -44 31 -53 -9 -5
-74 -10 -143 -10 -216 -2 -358 46 -530 178 -103 79 -175 150 -297 295 -68 81
-254 334 -254 346 0 19 76 -16 140 -65z m1300 -190 c52 -24 155 -75 230 -115
74 -41 245 -133 380 -206 135 -72 283 -158 330 -191 47 -32 141 -97 210 -143
197 -132 349 -246 492 -369 179 -153 198 -165 198 -129 0 11 -59 73 -142 149
-169 155 -202 182 -373 300 -71 49 -203 142 -292 205 -89 64 -212 141 -275
173 -101 52 -517 281 -593 326 l-30 19 27 0 c81 0 603 -226 853 -370 345 -199
684 -452 949 -710 155 -151 576 -596 576 -609 0 -5 -6 -14 -14 -20 -20 -17
-166 9 -279 49 -102 36 -412 167 -495 209 -206 105 -634 434 -1005 772 -88 79
-191 170 -230 202 -40 31 -107 86 -150 122 -149 126 -358 286 -417 321 -33 19
-72 46 -87 60 l-28 25 35 -14 c19 -8 78 -33 130 -56z m-2905 -13 c27 -6 122
-48 210 -92 209 -106 453 -198 625 -236 168 -36 215 -41 215 -20 0 11 -46 25
-181 57 -100 23 -226 58 -280 79 -111 41 -298 133 -273 133 24 1 192 -34 334
-69 66 -16 199 -47 295 -70 176 -41 610 -178 610 -192 0 -22 -257 -60 -415
-60 -152 0 -348 29 -458 69 -98 35 -160 67 -312 163 -71 45 -208 119 -302 166
-95 46 -173 86 -173 88 0 4 39 -2 105 -16z m-572 -710 c-4 -179 -148 -487
-289 -618 -147 -137 -509 -323 -836 -429 -216 -70 -284 -85 -587 -126 -145
-20 -349 -49 -453 -65 -206 -33 -228 -35 -228 -21 0 21 253 168 353 206 54 20
502 124 712 165 440 86 702 218 983 496 85 84 112 117 112 137 0 51 -23 39
-124 -65 -215 -221 -425 -353 -689 -432 -175 -53 -982 -224 -995 -211 -24 24
492 248 737 320 215 63 328 111 554 233 151 82 354 228 502 360 96 85 183 135
230 129 18 -2 20 -9 18 -79z m-4509 -628 c2 -121 10 -205 29 -315 47 -272 96
-499 129 -595 44 -128 150 -342 295 -595 66 -115 131 -230 143 -255 12 -25 55
-101 95 -170 277 -477 318 -559 369 -736 l24 -81 -18 -124 c-10 -68 -21 -151
-25 -184 l-8 -60 -27 81 c-87 255 -366 745 -562 985 -240 294 -397 546 -493
793 -40 102 -73 264 -87 418 -12 139 -12 141 23 467 9 88 9 106 -4 118 -13 13
-16 11 -26 -20 -16 -49 -41 -250 -48 -393 -18 -379 121 -793 389 -1155 26 -35
72 -98 102 -139 30 -41 90 -117 134 -168 121 -142 394 -609 485 -832 20 -47
51 -139 69 -205 31 -109 34 -128 29 -210 l-6 -90 -44 75 c-143 243 -278 410
-591 735 -280 290 -581 633 -651 739 -99 150 -198 378 -240 551 -39 160 -34
402 11 579 27 106 141 398 220 561 75 156 245 402 272 393 5 -2 11 -74 12
-168z m3296 -1049 c0 -38 -81 -269 -124 -354 -81 -158 -248 -370 -360 -458
-64 -50 -324 -198 -446 -253 -105 -48 -485 -174 -646 -215 -157 -40 -447 -102
-451 -97 -3 2 1 22 7 45 10 37 19 46 88 87 122 72 360 185 582 274 571 231
757 339 999 581 97 97 128 135 118 146 -10 10 -75 -40 -188 -144 -162 -151
-310 -251 -522 -353 -100 -48 -222 -102 -272 -120 -116 -42 -446 -182 -599
-254 -65 -31 -113 -49 -106 -41 35 42 370 255 518 329 62 31 225 125 628 361
49 30 135 89 190 132 177 139 523 353 570 353 8 0 14 -8 14 -19z m1535 -3265
c28 -3 86 -7 130 -11 44 -3 94 -8 110 -10 17 -2 62 -7 100 -10 92 -8 553 -69
725 -95 185 -28 290 -44 540 -80 293 -42 382 -53 490 -65 30 -3 66 -8 80 -10
14 -2 59 -7 100 -10 41 -4 86 -8 100 -10 14 -2 66 -7 115 -10 50 -4 103 -9
120 -11 167 -19 919 -26 1205 -11 85 5 157 10 160 12 3 1 45 6 94 10 49 4 98
8 110 10 11 2 48 6 81 10 69 7 289 38 420 60 50 8 94 15 98 15 4 0 -33 -46
-83 -102 -50 -57 -136 -165 -193 -242 -239 -324 -297 -400 -393 -512 -119
-139 -323 -340 -444 -437 -252 -203 -542 -352 -818 -422 -181 -46 -299 -58
-537 -58 -340 1 -584 39 -1267 202 -537 128 -842 185 -1118 211 -171 15 -533
13 -684 -5 -642 -75 -1216 -337 -1796 -821 l-89 -74 -85 119 c-244 343 -457
735 -611 1126 l-67 169 28 24 c67 54 442 297 599 388 698 401 1358 607 2080
650 66 3 122 8 124 10 5 5 510 -4 576 -10z m-29 -1701 c240 -27 462 -67 804
-146 370 -86 570 -139 724 -190 496 -165 1205 -501 1896 -897 227 -130 389
-205 585 -271 275 -91 495 -126 765 -119 l169 3 -36 -30 c-196 -164 -519 -387
-752 -520 -979 -558 -2119 -786 -3241 -645 -1178 147 -2277 697 -3102 1549
-123 127 -322 352 -341 386 -6 11 20 38 99 102 587 486 1176 742 1818 793 142
11 443 4 612 -15z"/>
</g>
</svg>
